<mxfile host="app.diagrams.net" modified="2021-07-11T10:50:05.918Z" agent="5.0 (Macintosh; Intel Mac OS X 10_15_7) AppleWebKit/537.36 (KHTML, like Gecko) Chrome/91.0.4472.114 Safari/537.36" etag="Iyste4gPrZPMPHABWDlH" version="14.8.5" type="github">
  <diagram id="jk_as43CgSATAvW1wt49" name="Page-1">
    <mxGraphModel dx="737" dy="491" grid="1" gridSize="10" guides="1" tooltips="1" connect="1" arrows="1" fold="1" page="1" pageScale="1" pageWidth="827" pageHeight="1169" math="0" shadow="0">
      <root>
        <mxCell id="0" />
        <mxCell id="1" parent="0" />
        <mxCell id="js_pz07hbtxCQZN5JYCm-1" value="People" style="swimlane;fontStyle=0;childLayout=stackLayout;horizontal=1;startSize=26;horizontalStack=0;resizeParent=1;resizeParentMax=0;resizeLast=0;collapsible=1;marginBottom=0;" vertex="1" parent="1">
          <mxGeometry x="320" y="100" width="160" height="110" as="geometry" />
        </mxCell>
        <mxCell id="js_pz07hbtxCQZN5JYCm-2" value="+ name: String&#xa;+ age:Â  Number" style="text;fillColor=none;align=left;verticalAlign=top;spacingLeft=4;spacingRight=4;overflow=hidden;rotatable=0;points=[[0,0.5],[1,0.5]];portConstraint=eastwest;strokeColor=#000000;" vertex="1" parent="js_pz07hbtxCQZN5JYCm-1">
          <mxGeometry y="26" width="160" height="44" as="geometry" />
        </mxCell>
        <mxCell id="js_pz07hbtxCQZN5JYCm-4" value="+ eat(): void&#xa;+ speak(): void" style="text;strokeColor=none;fillColor=none;align=left;verticalAlign=top;spacingLeft=4;spacingRight=4;overflow=hidden;rotatable=0;points=[[0,0.5],[1,0.5]];portConstraint=eastwest;" vertex="1" parent="js_pz07hbtxCQZN5JYCm-1">
          <mxGeometry y="70" width="160" height="40" as="geometry" />
        </mxCell>
      </root>
    </mxGraphModel>
  </diagram>
</mxfile>
